<?xml version="1.0" standalone="no"?>
<!DOCTYPE svg PUBLIC "-//W3C//DTD SVG 20010904//EN"
 "http://www.w3.org/TR/2001/REC-SVG-20010904/DTD/svg10.dtd">
<svg version="1.0" xmlns="http://www.w3.org/2000/svg"
 width="696.000000pt" height="696.000000pt" viewBox="0 0 696.000000 696.000000"
 preserveAspectRatio="xMidYMid meet">
<metadata>
Created by potrace 1.14, written by Peter Selinger 2001-2017
</metadata>
<g transform="translate(0.000000,696.000000) scale(0.100000,-0.100000)"
fill="#000000" stroke="none">
<path d="M3377 6948 c-9 -7 -23 -30 -32 -52 -16 -39 -20 -90 -30 -386 -5 -160
-7 -209 -21 -640 -4 -113 -7 -262 -8 -332 0 -71 -3 -128 -6 -128 -3 0 -6 -51
-6 -113 -1 -61 -4 -200 -8 -307 -4 -107 -9 -251 -11 -320 -3 -69 -7 -192 -10
-275 -3 -82 -7 -226 -10 -320 -12 -373 -11 -368 -65 -340 -14 7 -387 373 -828
812 -453 450 -820 807 -842 820 -64 34 -127 7 -151 -64 -14 -42 6 -101 48
-149 28 -31 119 -134 183 -209 19 -22 37 -42 40 -45 3 -3 32 -36 65 -75 33
-38 69 -79 80 -91 11 -12 37 -40 58 -62 41 -45 107 -139 107 -153 0 -12 -44
-29 -89 -35 -18 -2 -110 -6 -205 -9 -94 -3 -234 -8 -311 -11 -77 -3 -181 -7
-230 -8 -141 -4 -194 -32 -166 -84 19 -35 8 -34 656 -57 146 -5 408 -17 435
-19 122 -11 165 -40 314 -210 28 -32 56 -64 61 -70 6 -6 50 -58 100 -116 49
-58 92 -107 95 -110 3 -3 32 -36 65 -75 33 -38 65 -75 70 -81 6 -6 37 -42 70
-79 33 -38 78 -90 100 -114 46 -52 42 -48 115 -131 30 -35 70 -79 87 -99 40
-44 83 -130 91 -180 10 -59 6 -263 -13 -791 -11 -305 -16 -444 -20 -570 -5
-173 -14 -450 -20 -610 -3 -69 -7 -233 -10 -365 -2 -132 -4 -247 -5 -256 0
-28 -39 -37 -99 -22 -87 20 -170 37 -241 48 -66 10 -194 19 -280 18 -176 0
-297 -16 -460 -59 -52 -14 -99 -27 -105 -28 -10 -3 -14 -4 -105 -39 -138 -51
-300 -143 -452 -256 -86 -64 -98 -83 -55 -95 41 -11 4275 -7 4282 4 3 5 2 10
-4 10 -5 0 -17 7 -26 16 -28 28 -469 173 -606 199 -11 2 -28 6 -37 9 -9 3 -34
7 -56 11 -21 3 -41 7 -45 9 -4 3 -36 8 -71 11 -36 4 -67 8 -70 10 -3 2 -43 7
-90 11 -159 15 -488 9 -600 -10 -14 -3 -41 -7 -60 -10 -19 -3 -48 -8 -65 -12
-16 -3 -39 -7 -50 -9 -11 -2 -34 -6 -52 -10 -44 -10 -57 18 -59 130 -2 90 -12
419 -20 635 -2 63 -6 189 -9 280 -5 187 -14 445 -20 600 -6 165 -6 292 0 334
7 52 48 132 93 183 20 22 62 69 92 104 30 35 62 70 70 79 8 9 40 45 70 80 30
35 66 76 80 90 14 15 38 42 54 61 16 19 63 72 105 119 94 105 124 139 148 166
10 12 47 54 83 94 36 40 72 81 81 92 238 273 299 328 380 343 13 3 35 7 49 10
31 6 160 13 350 20 80 3 179 7 220 10 41 2 138 7 215 10 177 7 212 12 253 37
50 30 43 78 -13 92 -70 18 -125 24 -290 31 -55 2 -149 7 -210 10 -60 3 -161 8
-222 10 -118 6 -163 16 -163 37 0 28 67 112 218 277 13 14 47 53 75 85 29 33
63 71 77 86 14 15 50 56 80 90 30 35 81 93 113 129 91 100 108 147 76 200 -34
56 -84 60 -147 14 -35 -26 -78 -69 -1160 -1161 -394 -398 -732 -732 -751 -744
-27 -17 -35 -19 -42 -7 -5 8 -9 16 -10 19 0 3 -2 14 -4 25 -2 11 -7 92 -10
180 -2 88 -7 234 -10 325 -7 191 -13 371 -19 590 -3 85 -7 220 -10 300 -9 224
-18 497 -20 583 -3 147 26 215 153 361 47 55 100 115 116 135 115 134 192 215
224 235 60 38 77 40 351 51 80 3 184 7 231 9 132 5 192 33 151 69 -21 19 -71
25 -252 33 -308 12 -312 13 -276 81 13 23 26 40 30 36 3 -3 6 -1 6 5 0 12 24
42 81 103 14 16 47 54 75 85 27 32 62 72 77 88 60 65 117 149 117 172 0 34
-35 67 -63 58 -40 -12 -88 -55 -371 -336 -577 -573 -624 -618 -640 -612 -27
10 -31 48 -41 364 -9 280 -12 395 -20 605 -4 99 -8 234 -10 300 -5 162 -14
192 -62 214 -31 14 -45 14 -66 -1z"/>
</g>
</svg>
