<svg width="50" height="50" viewBox="0 0 50 50" fill="none" xmlns="http://www.w3.org/2000/svg">
<path d="M24.9969 0.520264C11.1938 0.520264 0 11.7578 0 25.6203C0 36.7078 7.1625 46.114 17.1 49.4359C18.35 49.6671 18.8063 48.8921 18.8063 48.2265C18.8063 47.6296 18.7844 46.0515 18.7719 43.9578C11.8188 45.4734 10.35 40.5921 10.35 40.5921C9.21563 37.6921 7.575 36.9203 7.575 36.9203C5.30313 35.364 7.74375 35.3953 7.74375 35.3953C10.2531 35.5734 11.5719 37.9828 11.5719 37.9828C13.8031 41.8171 17.425 40.7109 18.85 40.0671C19.075 38.4453 19.7219 37.339 20.4375 36.7109C14.8875 36.0765 9.05 33.9234 9.05 24.3078C9.05 21.5671 10.025 19.3265 11.625 17.5703C11.3656 16.9359 10.5094 14.3828 11.8688 10.9296C11.8688 10.9296 13.9688 10.2546 18.7438 13.5015C20.7375 12.9453 22.875 12.6671 25.0031 12.6578C27.125 12.6703 29.2656 12.9453 31.2625 13.5046C36.0344 10.2578 38.1312 10.9328 38.1312 10.9328C39.4937 14.389 38.6375 16.939 38.3812 17.5734C39.9844 19.3296 40.95 21.5703 40.95 24.3109C40.95 33.9515 35.1062 36.0734 29.5375 36.6953C30.4344 37.4703 31.2344 39.0015 31.2344 41.3421C31.2344 44.6984 31.2031 47.4046 31.2031 48.2265C31.2031 48.8984 31.6531 49.6796 32.9219 49.4328C42.8437 46.1078 50 36.7046 50 25.6203C50 11.7578 38.8063 0.520264 24.9969 0.520264Z" fill="black"/>
</svg>
