<svg width="50" height="50" viewBox="0 0 50 50" fill="none" xmlns="http://www.w3.org/2000/svg">
<path d="M11.0811 30.2156L9.34063 36.7129L2.97939 36.8475C1.07832 33.3214 0 29.2871 0 25C0 20.8544 1.0082 16.945 2.79531 13.5027H2.79668L8.45996 14.541L10.9408 20.1703C10.4216 21.6841 10.1386 23.3091 10.1386 25C10.1388 26.8352 10.4712 28.5935 11.0811 30.2156Z" fill="black"/>
<path d="M49.5632 20.3297C49.8503 21.842 50 23.4038 50 25C50 26.7898 49.8118 28.5357 49.4533 30.2198C48.2363 35.9506 45.0563 40.9547 40.6512 44.4959L40.6498 44.4945L33.5166 44.1306L32.507 37.8283C35.4301 36.1141 37.7145 33.4313 38.9178 30.2198H25.5496V20.3297H49.5632Z" fill="black"/>
<path d="M40.6497 44.4945L40.6511 44.4959C36.3668 47.9396 30.9244 50 25 50C15.4794 50 7.20195 44.6786 2.97939 36.8476L11.0811 30.2157C13.1923 35.8503 18.6277 39.8613 25 39.8613C27.739 39.8613 30.305 39.1209 32.5068 37.8283L40.6497 44.4945Z" fill="black"/>
<path d="M40.9574 5.75547L32.8585 12.3859C30.5797 10.9615 27.8859 10.1387 25 10.1387C18.4835 10.1387 12.9464 14.3337 10.9409 20.1703L2.79668 13.5027H2.79531C6.95605 5.48076 15.3379 0 25 0C31.0659 0 36.6277 2.16074 40.9574 5.75547Z" fill="black"/>
</svg>
